<mxfile host="app.diagrams.net" modified="2023-10-22T01:51:28.073Z" agent="Mozilla/5.0 (Windows NT 10.0; Win64; x64) AppleWebKit/537.36 (KHTML, like Gecko) Chrome/117.0.0.0 Safari/537.36 OPR/103.0.0.0" etag="Bt13iUc8jCi0qdFoDSj7" version="22.0.6" type="google">
  <diagram id="prtHgNgQTEPvFCAcTncT" name="Page-1">
    <mxGraphModel grid="1" page="1" gridSize="10" guides="1" tooltips="1" connect="1" arrows="1" fold="1" pageScale="1" pageWidth="827" pageHeight="1169" math="0" shadow="0">
      <root>
        <mxCell id="0" />
        <mxCell id="1" parent="0" />
        <mxCell id="dNxyNK7c78bLwvsdeMH5-19" value="Processo sistema catalogo de eventos" style="swimlane;html=1;childLayout=stackLayout;resizeParent=1;resizeParentMax=0;horizontal=0;startSize=20;horizontalStack=0;" vertex="1" parent="1">
          <mxGeometry x="120" y="120" width="950" height="400" as="geometry">
            <mxRectangle x="120" y="120" width="40" height="60" as="alternateBounds" />
          </mxGeometry>
        </mxCell>
        <mxCell id="dNxyNK7c78bLwvsdeMH5-20" value="Instituição" style="swimlane;html=1;startSize=20;horizontal=0;" vertex="1" parent="dNxyNK7c78bLwvsdeMH5-19">
          <mxGeometry x="20" width="930" height="120" as="geometry" />
        </mxCell>
        <mxCell id="dNxyNK7c78bLwvsdeMH5-25" value="" style="edgeStyle=orthogonalEdgeStyle;rounded=0;orthogonalLoop=1;jettySize=auto;html=1;" edge="1" parent="dNxyNK7c78bLwvsdeMH5-20" source="dNxyNK7c78bLwvsdeMH5-23" target="dNxyNK7c78bLwvsdeMH5-24">
          <mxGeometry relative="1" as="geometry" />
        </mxCell>
        <mxCell id="dNxyNK7c78bLwvsdeMH5-23" value="" style="ellipse;whiteSpace=wrap;html=1;" vertex="1" parent="dNxyNK7c78bLwvsdeMH5-20">
          <mxGeometry x="40" y="40" width="40" height="40" as="geometry" />
        </mxCell>
        <mxCell id="hWvbCsJXtm5b-WStmOFx-3" style="edgeStyle=orthogonalEdgeStyle;rounded=0;orthogonalLoop=1;jettySize=auto;html=1;exitX=1;exitY=0.5;exitDx=0;exitDy=0;entryX=0;entryY=0.5;entryDx=0;entryDy=0;" edge="1" parent="dNxyNK7c78bLwvsdeMH5-20" source="dNxyNK7c78bLwvsdeMH5-24" target="dNxyNK7c78bLwvsdeMH5-32">
          <mxGeometry relative="1" as="geometry" />
        </mxCell>
        <mxCell id="dNxyNK7c78bLwvsdeMH5-24" value="Cadastrar evento" style="rounded=0;whiteSpace=wrap;html=1;fontFamily=Helvetica;fontSize=12;fontColor=#000000;align=center;" vertex="1" parent="dNxyNK7c78bLwvsdeMH5-20">
          <mxGeometry x="130" y="30" width="80" height="60" as="geometry" />
        </mxCell>
        <mxCell id="dNxyNK7c78bLwvsdeMH5-32" value="" style="ellipse;whiteSpace=wrap;html=1;fillColor=default;" vertex="1" parent="dNxyNK7c78bLwvsdeMH5-20">
          <mxGeometry x="260" y="40" width="40" height="40" as="geometry" />
        </mxCell>
        <mxCell id="hWvbCsJXtm5b-WStmOFx-4" value="" style="ellipse;whiteSpace=wrap;html=1;aspect=fixed;" vertex="1" parent="dNxyNK7c78bLwvsdeMH5-20">
          <mxGeometry x="262.5" y="42.5" width="35" height="35" as="geometry" />
        </mxCell>
        <mxCell id="dNxyNK7c78bLwvsdeMH5-21" value="Usuário" style="swimlane;html=1;startSize=20;horizontal=0;" vertex="1" parent="dNxyNK7c78bLwvsdeMH5-19">
          <mxGeometry x="20" y="120" width="930" height="280" as="geometry" />
        </mxCell>
        <mxCell id="hWvbCsJXtm5b-WStmOFx-22" value="" style="ellipse;whiteSpace=wrap;html=1;fillColor=default;" vertex="1" parent="dNxyNK7c78bLwvsdeMH5-21">
          <mxGeometry x="800" y="105" width="40" height="40" as="geometry" />
        </mxCell>
        <mxCell id="dNxyNK7c78bLwvsdeMH5-29" value="" style="edgeStyle=orthogonalEdgeStyle;rounded=0;orthogonalLoop=1;jettySize=auto;html=1;endArrow=classic;endFill=1;" edge="1" parent="dNxyNK7c78bLwvsdeMH5-21" source="dNxyNK7c78bLwvsdeMH5-26">
          <mxGeometry relative="1" as="geometry">
            <mxPoint x="260" y="120" as="targetPoint" />
          </mxGeometry>
        </mxCell>
        <mxCell id="dNxyNK7c78bLwvsdeMH5-26" value="Buscar evento" style="rounded=0;whiteSpace=wrap;html=1;fontFamily=Helvetica;fontSize=12;fontColor=#000000;align=center;" vertex="1" parent="dNxyNK7c78bLwvsdeMH5-21">
          <mxGeometry x="130" y="90" width="80" height="60" as="geometry" />
        </mxCell>
        <mxCell id="hWvbCsJXtm5b-WStmOFx-8" value="" style="edgeStyle=orthogonalEdgeStyle;rounded=0;orthogonalLoop=1;jettySize=auto;html=1;" edge="1" parent="dNxyNK7c78bLwvsdeMH5-21" source="hWvbCsJXtm5b-WStmOFx-2" target="hWvbCsJXtm5b-WStmOFx-7">
          <mxGeometry relative="1" as="geometry" />
        </mxCell>
        <mxCell id="hWvbCsJXtm5b-WStmOFx-2" value="Marcar presença do evento" style="rounded=0;whiteSpace=wrap;html=1;fontFamily=Helvetica;fontSize=12;fontColor=#000000;align=center;" vertex="1" parent="dNxyNK7c78bLwvsdeMH5-21">
          <mxGeometry x="260" y="90" width="80" height="60" as="geometry" />
        </mxCell>
        <mxCell id="hWvbCsJXtm5b-WStmOFx-6" style="edgeStyle=orthogonalEdgeStyle;rounded=0;orthogonalLoop=1;jettySize=auto;html=1;exitX=1;exitY=0.5;exitDx=0;exitDy=0;entryX=0;entryY=0.5;entryDx=0;entryDy=0;" edge="1" parent="dNxyNK7c78bLwvsdeMH5-21" source="hWvbCsJXtm5b-WStmOFx-5" target="dNxyNK7c78bLwvsdeMH5-26">
          <mxGeometry relative="1" as="geometry" />
        </mxCell>
        <mxCell id="hWvbCsJXtm5b-WStmOFx-5" value="" style="ellipse;whiteSpace=wrap;html=1;" vertex="1" parent="dNxyNK7c78bLwvsdeMH5-21">
          <mxGeometry x="40" y="100" width="40" height="40" as="geometry" />
        </mxCell>
        <mxCell id="hWvbCsJXtm5b-WStmOFx-15" style="edgeStyle=orthogonalEdgeStyle;rounded=0;orthogonalLoop=1;jettySize=auto;html=1;entryX=0;entryY=0.5;entryDx=0;entryDy=0;" edge="1" parent="dNxyNK7c78bLwvsdeMH5-21" source="hWvbCsJXtm5b-WStmOFx-7" target="hWvbCsJXtm5b-WStmOFx-11">
          <mxGeometry relative="1" as="geometry">
            <Array as="points">
              <mxPoint x="425" y="210" />
            </Array>
          </mxGeometry>
        </mxCell>
        <mxCell id="hWvbCsJXtm5b-WStmOFx-7" value="&lt;font style=&quot;font-size: 36px;&quot;&gt;+&lt;/font&gt;" style="rhombus;whiteSpace=wrap;html=1;fontColor=#000000;rounded=0;" vertex="1" parent="dNxyNK7c78bLwvsdeMH5-21">
          <mxGeometry x="400" y="95" width="50" height="50" as="geometry" />
        </mxCell>
        <mxCell id="hWvbCsJXtm5b-WStmOFx-17" style="edgeStyle=orthogonalEdgeStyle;rounded=0;orthogonalLoop=1;jettySize=auto;html=1;entryX=0.5;entryY=0;entryDx=0;entryDy=0;" edge="1" parent="dNxyNK7c78bLwvsdeMH5-21" source="hWvbCsJXtm5b-WStmOFx-9" target="hWvbCsJXtm5b-WStmOFx-16">
          <mxGeometry relative="1" as="geometry" />
        </mxCell>
        <mxCell id="hWvbCsJXtm5b-WStmOFx-9" value="Avaliar o evento" style="rounded=0;whiteSpace=wrap;html=1;fontFamily=Helvetica;fontSize=12;fontColor=#000000;align=center;" vertex="1" parent="dNxyNK7c78bLwvsdeMH5-21">
          <mxGeometry x="530" y="10" width="80" height="60" as="geometry" />
        </mxCell>
        <mxCell id="hWvbCsJXtm5b-WStmOFx-18" style="edgeStyle=orthogonalEdgeStyle;rounded=0;orthogonalLoop=1;jettySize=auto;html=1;exitX=1;exitY=0.5;exitDx=0;exitDy=0;entryX=0;entryY=0.5;entryDx=0;entryDy=0;" edge="1" parent="dNxyNK7c78bLwvsdeMH5-21" source="hWvbCsJXtm5b-WStmOFx-10" target="hWvbCsJXtm5b-WStmOFx-16">
          <mxGeometry relative="1" as="geometry" />
        </mxCell>
        <mxCell id="hWvbCsJXtm5b-WStmOFx-10" value="Favoritar o evento" style="rounded=0;whiteSpace=wrap;html=1;fontFamily=Helvetica;fontSize=12;fontColor=#000000;align=center;" vertex="1" parent="dNxyNK7c78bLwvsdeMH5-21">
          <mxGeometry x="530" y="95" width="80" height="60" as="geometry" />
        </mxCell>
        <mxCell id="hWvbCsJXtm5b-WStmOFx-19" style="edgeStyle=orthogonalEdgeStyle;rounded=0;orthogonalLoop=1;jettySize=auto;html=1;entryX=0.5;entryY=1;entryDx=0;entryDy=0;" edge="1" parent="dNxyNK7c78bLwvsdeMH5-21" source="hWvbCsJXtm5b-WStmOFx-11" target="hWvbCsJXtm5b-WStmOFx-16">
          <mxGeometry relative="1" as="geometry" />
        </mxCell>
        <mxCell id="hWvbCsJXtm5b-WStmOFx-11" value="Comentar sobre o evento" style="rounded=0;whiteSpace=wrap;html=1;fontFamily=Helvetica;fontSize=12;fontColor=#000000;align=center;" vertex="1" parent="dNxyNK7c78bLwvsdeMH5-21">
          <mxGeometry x="530" y="180" width="80" height="60" as="geometry" />
        </mxCell>
        <mxCell id="hWvbCsJXtm5b-WStmOFx-12" style="edgeStyle=orthogonalEdgeStyle;rounded=0;orthogonalLoop=1;jettySize=auto;html=1;exitX=1;exitY=0.5;exitDx=0;exitDy=0;entryX=0.018;entryY=0.426;entryDx=0;entryDy=0;entryPerimeter=0;" edge="1" parent="dNxyNK7c78bLwvsdeMH5-21" source="hWvbCsJXtm5b-WStmOFx-7" target="hWvbCsJXtm5b-WStmOFx-10">
          <mxGeometry relative="1" as="geometry" />
        </mxCell>
        <mxCell id="hWvbCsJXtm5b-WStmOFx-13" style="edgeStyle=orthogonalEdgeStyle;rounded=0;orthogonalLoop=1;jettySize=auto;html=1;entryX=0.009;entryY=0.406;entryDx=0;entryDy=0;entryPerimeter=0;" edge="1" parent="dNxyNK7c78bLwvsdeMH5-21" source="hWvbCsJXtm5b-WStmOFx-7" target="hWvbCsJXtm5b-WStmOFx-9">
          <mxGeometry relative="1" as="geometry">
            <Array as="points">
              <mxPoint x="425" y="34" />
            </Array>
          </mxGeometry>
        </mxCell>
        <mxCell id="hWvbCsJXtm5b-WStmOFx-20" style="edgeStyle=orthogonalEdgeStyle;rounded=0;orthogonalLoop=1;jettySize=auto;html=1;" edge="1" parent="dNxyNK7c78bLwvsdeMH5-21" source="hWvbCsJXtm5b-WStmOFx-16">
          <mxGeometry relative="1" as="geometry">
            <mxPoint x="800" y="125" as="targetPoint" />
          </mxGeometry>
        </mxCell>
        <mxCell id="hWvbCsJXtm5b-WStmOFx-16" value="&lt;font style=&quot;font-size: 36px;&quot;&gt;+&lt;/font&gt;" style="rhombus;whiteSpace=wrap;html=1;fontColor=#000000;rounded=0;" vertex="1" parent="dNxyNK7c78bLwvsdeMH5-21">
          <mxGeometry x="687" y="100" width="50" height="50" as="geometry" />
        </mxCell>
        <mxCell id="hWvbCsJXtm5b-WStmOFx-21" value="" style="ellipse;whiteSpace=wrap;html=1;aspect=fixed;" vertex="1" parent="dNxyNK7c78bLwvsdeMH5-21">
          <mxGeometry x="802.5" y="107.5" width="35" height="35" as="geometry" />
        </mxCell>
      </root>
    </mxGraphModel>
  </diagram>
</mxfile>
